<svg xmlns="http://www.w3.org/2000/svg" viewBox="0 0 899.75 818.27"><defs><style>.cls-1,.cls-2{stroke:#cce198;stroke-miterlimit:10;}.cls-1{fill:url(#未命名的渐变_2);}.cls-2{fill:url(#未命名的渐变_6);}</style><linearGradient id="未命名的渐变_2" x1="468.63" y1="483.58" x2="1197.54" y2="483.58" gradientUnits="userSpaceOnUse"><stop offset="0" stop-color="#838bc5"/><stop offset="0.11" stop-color="#8c95c0" stop-opacity="0.88"/><stop offset="0.55" stop-color="#aebeaa" stop-opacity="0.41"/><stop offset="0.85" stop-color="#c4d79d" stop-opacity="0.11"/><stop offset="1" stop-color="#cce198" stop-opacity="0"/></linearGradient><linearGradient id="未命名的渐变_6" x1="410.23" y1="483.66" x2="1207.34" y2="495.23" gradientTransform="translate(53.71 -80.73) rotate(6.53)" gradientUnits="userSpaceOnUse"><stop offset="0" stop-color="#4a88c7"/><stop offset="0.11" stop-color="#5b93c1" stop-opacity="0.87"/><stop offset="0.55" stop-color="#97bdab" stop-opacity="0.41"/><stop offset="0.85" stop-color="#bdd79d" stop-opacity="0.11"/><stop offset="1" stop-color="#cce198" stop-opacity="0"/></linearGradient></defs><title>ktmetaLOGO</title><g id="图层_2" data-name="图层 2"><path class="cls-1" d="M468.65,122.6l18.69,724.34c.92,35.5,39.92,56.69,70.2,38.15l618-378.36c30.28-18.55,29.14-62.92-2.06-79.87l-636.65-346C505.59,63.92,467.73,87.1,468.65,122.6Z" transform="translate(-298.29 -74.71)"/></g><g id="图层_1" data-name="图层 1"><path class="cls-2" d="M308.07,294.34,742.81,874c21.31,28.41,65.37,23.1,79.32-9.56l284.65-666.33c14-32.66-12.68-68.17-47.93-63.92L339.46,220.86C304.21,225.11,286.77,265.93,308.07,294.34Z" transform="translate(-298.29 -74.71)"/></g><g id="图层_3" data-name="图层 3"><path d="M437,340.7h47.2L520.45,424c4.6,11.08,8.63,22.88,12.95,34.45h1.44c4.61-11.57,8.35-23.37,12.95-34.45l35.4-83.34H630.4V519H591.54V444.52c0-16.87,3.17-41.68,5.18-58.54h-1.15L578.3,427.9l-32.81,74.91H521l-33.1-74.91-17-41.92h-1.15c2,16.86,5.47,41.67,5.47,58.54V519H437Z" transform="translate(-298.29 -74.71)"/><path d="M674.92,394.17h91.47v20.74H704.73v28.84h52.39v20.9H704.73V498H768.6V519H674.92Z" transform="translate(-298.29 -74.71)"/><path d="M828.44,414.91H786.53V394.17h114v20.74H858.26V519H828.44Z" transform="translate(-298.29 -74.71)"/><path d="M985.59,486.91H937.23l-10.47,32H896.53l47.75-124.78h35.06L1027.29,519H996.06Zm-6.45-19.39-4.43-13.66c-4.64-13-8.67-27.31-13.1-40.8h-.8c-3.83,13.66-8.27,27.82-12.7,40.8l-4.43,13.66Z" transform="translate(-298.29 -74.71)"/></g></svg>